<svg width="528" height="489" viewBox="0 0 528 489" fill="none" xmlns="http://www.w3.org/2000/svg">
<rect x="110" y="99" width="313" height="291" rx="36" stroke="white" stroke-width="12"/>
<rect x="204" y="188" width="125" height="113" rx="21" stroke="white" stroke-width="12"/>
<path d="M148 105V0" stroke="white" stroke-width="16"/>
<path d="M381 105V0" stroke="white" stroke-width="16"/>
<path d="M305 105V0" stroke="white" stroke-width="16"/>
<path d="M225 105V0" stroke="white" stroke-width="16"/>
<path d="M148 489V384" stroke="white" stroke-width="16"/>
<path d="M381 489V384" stroke="white" stroke-width="16"/>
<path d="M305 489V384" stroke="white" stroke-width="16"/>
<path d="M225 489V384" stroke="white" stroke-width="16"/>
<path d="M422.08 126L527.055 128.289" stroke="white" stroke-width="16"/>
<path d="M417 358.945L521.975 361.234" stroke="white" stroke-width="16"/>
<path d="M418.657 282.963L523.632 285.252" stroke="white" stroke-width="16"/>
<path d="M420.401 202.982L525.376 205.271" stroke="white" stroke-width="16"/>
<path d="M6.07959 128L111.055 130.289" stroke="white" stroke-width="16"/>
<path d="M1 360.945L105.975 363.234" stroke="white" stroke-width="16"/>
<path d="M2.65674 284.963L107.632 287.252" stroke="white" stroke-width="16"/>
<path d="M4.40088 204.982L109.376 207.271" stroke="white" stroke-width="16"/>
</svg>
