<svg width="358" height="326" viewBox="0 0 358 326" fill="none" xmlns="http://www.w3.org/2000/svg">
<line x1="3.96559" y1="214.742" x2="280.189" y2="4.70951" stroke="white" stroke-width="10"/>
<line x1="69.439" y1="301.887" x2="345.662" y2="91.8545" stroke="white" stroke-width="10"/>
<line x1="272.81" y1="3.99663" x2="343.092" y2="97.5409" stroke="white" stroke-width="10"/>
<line x1="5.99747" y1="209.457" x2="76.2788" y2="303.001" stroke="white" stroke-width="10"/>
<rect x="54.6845" y="209.782" width="40" height="51" transform="rotate(-36.9181 54.6845 209.782)" stroke="white" stroke-width="5"/>
<rect x="88.451" y="288.853" width="300" height="37" transform="rotate(-36.9181 88.451 288.853)" stroke="white" stroke-width="10"/>
<rect x="110.649" y="167.735" width="40" height="51" transform="rotate(-36.9181 110.649 167.735)" stroke="white" stroke-width="5"/>
<rect x="165.814" y="126.289" width="40" height="51" transform="rotate(-36.9181 165.814 126.289)" stroke="white" stroke-width="5"/>
<rect x="221.779" y="84.2412" width="40" height="51" transform="rotate(-36.9181 221.779 84.2412)" stroke="white" stroke-width="5"/>
<line x1="128.451" y1="288.82" x2="136.86" y2="300.013" stroke="white" stroke-width="6"/>
<line x1="142.436" y1="270.808" x2="150.845" y2="282.001" stroke="white" stroke-width="6"/>
<line x1="233.984" y1="209.531" x2="242.394" y2="220.724" stroke="white" stroke-width="6"/>
<line x1="247.969" y1="191.519" x2="256.379" y2="202.712" stroke="white" stroke-width="6"/>
<line x1="304.34" y1="156.672" x2="312.749" y2="167.865" stroke="white" stroke-width="6"/>
<line x1="318.325" y1="138.66" x2="326.734" y2="149.853" stroke="white" stroke-width="6"/>
<line x1="269.162" y1="183.102" x2="277.572" y2="194.295" stroke="white" stroke-width="6"/>
<line x1="283.147" y1="165.09" x2="291.556" y2="176.283" stroke="white" stroke-width="6"/>
<line x1="198.807" y1="235.961" x2="207.216" y2="247.154" stroke="white" stroke-width="6"/>
<line x1="212.791" y1="217.949" x2="221.201" y2="229.142" stroke="white" stroke-width="6"/>
<line x1="163.629" y1="262.39" x2="172.038" y2="273.583" stroke="white" stroke-width="6"/>
<line x1="177.614" y1="244.379" x2="186.023" y2="255.572" stroke="white" stroke-width="6"/>
</svg>
